<svg width="24" height="24" viewBox="0 0 24 24" fill="none" xmlns="http://www.w3.org/2000/svg">
<g clip-path="url(#clip0_1573_20052)">
<path d="M1.98586 7.16277C3.03885 11.5292 5.70755 15.1402 9.5007 17.3302C13.2934 19.5199 17.7551 20.0255 22.0625 18.754C22.8211 18.5301 23.2872 17.7228 23.1016 16.9543L22.3181 13.7015C22.1333 12.9374 21.3002 12.4564 20.5461 12.6784C19.4728 12.9952 18.3794 13.1359 17.3014 13.0965C16.7648 13.0708 16.2384 13.3651 15.9974 13.7915L14.3815 15.893C11.7641 15.3223 10.0844 14.3531 8.30352 12.3844L9.28706 9.99335C9.56416 9.51339 9.56249 8.92829 9.27842 8.45928C8.70232 7.54086 8.27742 6.52369 8.01447 5.43592C7.92257 5.05302 7.6863 4.7356 7.34965 4.54124C7.01344 4.34713 6.62041 4.30121 6.24312 4.41264L3.0252 5.36259C2.26656 5.58656 1.80048 6.39383 1.98586 7.16277Z" fill="#6E6681"/>
<g clip-path="url(#clip1_1573_20052)">
<path d="M15.4283 2.92585C13.0212 2.92585 11.0676 4.87943 11.0676 7.28657C11.0676 9.6937 13.0212 11.6473 15.4283 11.6473C17.8354 11.6473 19.789 9.6937 19.789 7.28657C19.789 4.87943 17.8354 2.92585 15.4283 2.92585ZM12.0747 7.28657C12.0747 5.4337 13.5754 3.933 15.4283 3.933C16.1734 3.933 16.8602 4.1767 17.4147 4.58981L12.7315 9.27297C12.3184 8.71845 12.0747 8.03165 12.0747 7.28657ZM15.4283 10.6401C14.6832 10.6401 13.9964 10.3964 13.4419 9.98333L18.1251 5.30016C18.5382 5.85469 18.7819 6.54149 18.7819 7.28657C18.7819 9.13943 17.2812 10.6401 15.4283 10.6401Z" fill="#DB312B" stroke="#DB312B" stroke-width="0.15"/>
</g>
</g>
<defs>
<clipPath id="clip0_1573_20052">
<rect width="24" height="24" fill="white"/>
</clipPath>
<clipPath id="clip1_1573_20052">
<rect width="10.2857" height="10.2857" fill="white" transform="translate(10.2856 2.14282)"/>
</clipPath>
</defs>
</svg>
