<svg width="24" height="24" viewBox="0 0 24 24" fill="none" xmlns="http://www.w3.org/2000/svg">
<g clip-path="url(#clip0_2773_6501)">
<path d="M1.9858 8.16289C3.03879 12.5293 5.70749 16.1404 9.50064 18.3303C13.2933 20.52 17.755 21.0256 22.0625 19.7542C22.821 19.5302 23.2871 18.7229 23.1015 17.9545L22.318 14.7016C22.1332 13.9375 21.3001 13.4565 20.546 13.6785C19.4727 13.9953 18.3793 14.136 17.3014 14.0966C16.7647 14.0709 16.2384 14.3652 15.9973 14.7916L14.3814 16.8931C11.764 16.3224 10.0844 15.3532 8.30346 13.3846L9.287 10.9935C9.5641 10.5135 9.56243 9.92841 9.27836 9.4594C8.70226 8.54098 8.27736 7.52381 8.01441 6.43604C7.92251 6.05314 7.68624 5.73572 7.34958 5.54136C7.01338 5.34725 6.62035 5.30133 6.24306 5.41276L3.02514 6.36271C2.2665 6.58668 1.80042 7.39395 1.9858 8.16289Z" fill="#FFFFFF"/>
<path d="M19.157 9.02333L17.7908 10.4218L15.8202 8.49665L14.1148 10.2423L12.7848 8.94295L14.4902 7.1973L12.6076 5.35813L13.9739 3.95966L15.8564 5.79882L17.5523 4.06295L18.8823 5.36231L17.1864 7.09818L19.157 9.02333Z" fill="#FFFFFF"/>
</g>
<defs>
<clipPath id="clip0_2773_6501">
<rect width="24" height="24" fill="white"/>
</clipPath>
</defs>
</svg>
